<?xml version="1.0" standalone="no"?>
<!DOCTYPE svg PUBLIC "-//W3C//DTD SVG 20010904//EN"
 "http://www.w3.org/TR/2001/REC-SVG-20010904/DTD/svg10.dtd">
<svg version="1.0" xmlns="http://www.w3.org/2000/svg"
 width="456.000000pt" height="289.000000pt" viewBox="0 0 456.000000 289.000000"
 preserveAspectRatio="xMidYMid meet">

<g transform="translate(0.000000,289.000000) scale(0.100000,-0.100000)"
fill="#000000" stroke="none">
<path d="M2274 1699 c11 -75 56 -150 110 -186 26 -18 45 -33 42 -33 -14 0 -63
29 -75 44 -8 9 -29 16 -49 16 -35 0 -35 0 -16 -21 39 -43 94 -58 152 -43 28 8
29 52 3 109 -20 44 -90 114 -141 140 l-33 17 7 -43z"/>
<path d="M1710 1410 c-10 -6 -17 -35 -21 -96 -5 -84 -7 -88 -40 -116 -28 -23
-32 -31 -23 -46 18 -28 51 -26 83 6 33 32 51 86 51 150 0 40 1 42 30 42 l29 0
3 -101 c2 -82 6 -104 20 -112 12 -8 21 -7 32 2 13 11 16 36 16 135 0 82 -4
126 -12 134 -14 14 -146 16 -168 2z"/>
<path d="M2051 1358 c-78 -178 -87 -220 -44 -226 14 -2 26 4 33 17 16 30 109
30 128 1 15 -24 35 -26 53 -4 10 13 6 32 -30 122 -52 130 -66 152 -92 152 -15
0 -27 -16 -48 -62z m78 -120 c1 -5 -10 -8 -24 -8 -28 0 -30 4 -13 51 l11 33
13 -34 c7 -19 13 -38 13 -42z"/>
<path d="M2324 1407 c-2 -7 -3 -71 -2 -143 3 -123 4 -129 24 -132 17 -2 37 16
85 75 l64 78 3 -72 c2 -62 6 -73 23 -78 41 -13 49 9 49 139 0 126 -6 146 -42
146 -10 0 -41 -32 -75 -77 l-58 -77 -3 64 c-2 35 -8 70 -14 77 -14 17 -47 17
-54 0z"/>
<path d="M2675 1408 c-3 -8 -4 -72 -3 -144 l3 -129 30 0 c30 0 30 0 33 63 l3
64 30 -41 c16 -23 34 -41 39 -41 11 0 39 27 57 56 10 16 12 12 12 -31 1 -54
13 -75 43 -75 32 0 38 32 30 161 -7 118 -8 124 -29 127 -19 3 -31 -9 -65 -62
-23 -36 -44 -66 -47 -65 -3 0 -24 28 -46 62 -40 62 -79 85 -90 55z"/>
</g>
</svg>
